<svg xmlns="http://www.w3.org/2000/svg" viewBox="0 0 1200 320" width="1200" height="320" role="img" aria-label="Computational Chemical Engineering — open-source tools for reactor modeling and transport phenomena">
  <defs>
    <linearGradient id="bg" x1="0" y1="0" x2="1" y2="1">
      <stop offset="0" stop-color="#0b1e3a"/>
      <stop offset="0.55" stop-color="#123a67"/>
      <stop offset="1" stop-color="#0e7490"/>
    </linearGradient>
    <linearGradient id="accent" x1="0" y1="0" x2="1" y2="0">
      <stop offset="0" stop-color="#38bdf8"/>
      <stop offset="1" stop-color="#a7f3d0"/>
    </linearGradient>
    <radialGradient id="glow" cx="0.5" cy="0.5" r="0.5">
      <stop offset="0" stop-color="#38bdf8" stop-opacity="0.55"/>
      <stop offset="1" stop-color="#38bdf8" stop-opacity="0"/>
    </radialGradient>
    <filter id="soft" x="-20%" y="-20%" width="140%" height="140%">
      <feGaussianBlur stdDeviation="6"/>
    </filter>
  </defs>

  <rect width="1200" height="320" fill="url(#bg)"/>

  <!-- faint grid -->
  <g stroke="#ffffff" stroke-opacity="0.05" stroke-width="1">
    <path d="M0 40 H1200 M0 80 H1200 M0 120 H1200 M0 160 H1200 M0 200 H1200 M0 240 H1200 M0 280 H1200"/>
    <path d="M40 0 V320 M120 0 V320 M200 0 V320 M280 0 V320 M360 0 V320 M440 0 V320 M520 0 V320 M600 0 V320 M680 0 V320 M760 0 V320 M840 0 V320 M920 0 V320 M1000 0 V320 M1080 0 V320 M1160 0 V320"/>
  </g>

  <!-- title -->
  <g font-family="'Segoe UI', Helvetica, Arial, sans-serif" text-anchor="middle">
    <text x="600" y="150" fill="#ffffff" font-size="58" font-weight="700">Computational Chemical Engineering</text>
    <rect x="500" y="176" width="200" height="5" rx="2.5" fill="url(#accent)"/>
    <text x="600" y="224" fill="#cbe8ff" font-size="24" font-weight="400">Open-source tools for reactor modeling &amp; transport phenomena</text>
    <text x="600" y="262" fill="#8fd0f0" fill-opacity="0.9" font-size="18">Eindhoven University of Technology · Chemical Engineering &amp; Chemistry</text>
  </g>
</svg>
